<svg width="200" height="44" viewBox="0 0 200 44" fill="none" xmlns="http://www.w3.org/2000/svg">
    <path
      d="M29.6212 1.26758L0 41.3463L22.9259 41.3463H29.6212H33.1085V35.1372H29.6212L29.6212 1.26758ZM12.1979 35.2473L22.6532 20.4356L22.6532 35.2738L12.1979 35.2473Z"
      fill="#5F01D3"
    />
    <path
      d="M38.3361 41.3463H45.3063L45.3063 1.26758L33.1605 1.26758V7.95008L38.3361 7.95008L38.3361 41.3463Z"
      fill="#5F01D3"
    />
    <path
      d="M54.293 41.3462L54.293 0.248018L66.2519 0.248018C70.3692 0.248018 73.8689 0.865613 76.751 2.1008C79.6331 3.33599 81.9537 4.98292 83.7129 7.04157C85.4722 9.06278 86.7635 11.346 87.587 13.8913C88.4104 16.3991 88.8221 18.9256 88.8221 21.4708C88.8221 24.5027 88.2607 27.2538 87.1378 29.7241C86.0523 32.1571 84.5551 34.2532 82.6462 36.0124C80.7747 37.7342 78.6038 39.0629 76.1334 39.9987C73.663 40.897 71.0242 41.3462 68.2169 41.3462H54.293ZM61.5918 34.328H66.9256C69.0591 34.328 70.9867 34.0286 72.7085 33.4297C74.4677 32.8308 75.9837 31.9887 77.2563 30.9032C78.5289 29.7803 79.5021 28.3767 80.1758 26.6923C80.887 25.008 81.2426 23.099 81.2426 20.9655C81.2426 18.308 80.8121 16.0996 79.9512 14.3404C79.0903 12.5812 77.9862 11.1963 76.6387 10.1857C75.3286 9.13765 73.925 8.38904 72.4278 7.93988C70.968 7.49072 69.6018 7.26614 68.3292 7.26614L61.5918 7.26614L61.5918 34.328Z"
      fill="#5F01D3"
    />
    <path
      d="M97.279 0.248018L124.902 0.248018V7.32229L104.578 7.32229V17.2038L122.6 17.2038V24.2781L104.578 24.2781V34.328L125.688 34.328V41.3462L97.279 41.3462V0.248018Z"
      fill="#5F01D3"
    />
    <path
      d="M139.618 0.248018L152.139 31.1839L147.928 30.3417L159.381 0.248018L168.028 0.248018L149.444 43.2551L130.916 0.248018L139.618 0.248018Z"
      fill="#5F01D3"
    />
    <path
      d="M197.248 9.39966C195.751 8.57619 194.179 7.90245 192.532 7.37843C190.885 6.81698 189.332 6.53626 187.872 6.53626C185.963 6.53626 184.466 6.94799 183.38 7.77145C182.295 8.55748 181.752 9.69909 181.752 11.1963C181.752 12.2443 182.145 13.1801 182.931 14.0035C183.717 14.7896 184.728 15.5007 185.963 16.1371C187.236 16.7359 188.546 17.2787 189.893 17.7653C191.128 18.2518 192.345 18.7946 193.543 19.3935C194.74 19.9923 195.807 20.7597 196.743 21.6954C197.716 22.5937 198.483 23.7166 199.045 25.0641C199.606 26.4116 199.887 28.0772 199.887 30.061C199.887 32.1571 199.344 34.1035 198.259 35.9001C197.173 37.6593 195.601 39.0816 193.543 40.1671C191.484 41.2526 188.976 41.7953 186.019 41.7953C184.372 41.7953 182.725 41.6269 181.078 41.29C179.469 40.9531 177.897 40.4666 176.362 39.8302C174.865 39.1565 173.443 38.3518 172.095 37.416L175.352 31.6892C176.287 32.4004 177.317 33.0367 178.44 33.5982C179.6 34.1222 180.779 34.5526 181.977 34.8895C183.175 35.1889 184.297 35.3386 185.345 35.3386C186.431 35.3386 187.498 35.1702 188.546 34.8333C189.631 34.4965 190.53 33.9537 191.241 33.2051C191.952 32.4191 192.307 31.3711 192.307 30.061C192.307 29.0504 192.008 28.1708 191.409 27.4222C190.81 26.6736 190.006 26.0186 188.995 25.4571C187.984 24.8582 186.899 24.3342 185.738 23.8851C184.466 23.3985 183.156 22.8557 181.808 22.2569C180.461 21.6205 179.207 20.8532 178.047 19.9549C176.886 19.0566 175.951 17.9524 175.239 16.6424C174.528 15.2949 174.173 13.6667 174.173 11.7577C174.173 9.43708 174.697 7.43458 175.745 5.75023C176.83 4.02845 178.309 2.68097 180.18 1.70779C182.089 0.697179 184.297 0.135728 186.805 0.0234375C189.875 0.0234375 192.438 0.397738 194.497 1.14634C196.556 1.89494 198.39 2.77454 199.999 3.78515L197.248 9.39966Z"
      fill="#5F01D3"
    />
  </svg>