<svg width="13" height="16" viewBox="0 0 13 16" fill="none" xmlns="http://www.w3.org/2000/svg">
<path d="M11.7072 1.83996L6.74219 0.194336L1.77719 1.83996C1.40311 1.96397 1.07761 2.2027 0.846939 2.52223C0.616263 2.84177 0.492136 3.22586 0.492188 3.61996V7.68871C0.492188 12.3912 6.24219 14.9881 6.48844 15.0962L6.70969 15.1943L6.93969 15.1181C7.18719 15.0356 12.9922 13.0493 12.9922 7.68871V3.61996C12.9922 3.22586 12.8681 2.84177 12.6374 2.52223C12.4068 2.2027 12.0813 1.96397 11.7072 1.83996ZM7.01969 8.93184C6.91043 9.04183 6.78041 9.12902 6.63717 9.18835C6.49394 9.24768 6.34035 9.27797 6.18531 9.27746H6.16469C6.00649 9.27504 5.85044 9.24056 5.70595 9.1761C5.56146 9.11165 5.43155 9.01856 5.32406 8.90246L3.88281 7.40246L4.78469 6.53871L6.18719 8.00121L9.42531 4.76309L10.3091 5.64684L7.01969 8.93184Z" fill="#FE9738" fill-opacity="0.51"/>
</svg>
